<?xml version="1.0" standalone="no"?>
<!DOCTYPE svg PUBLIC "-//W3C//DTD SVG 20010904//EN"
 "http://www.w3.org/TR/2001/REC-SVG-20010904/DTD/svg10.dtd">
<svg version="1.0" xmlns="http://www.w3.org/2000/svg"
 width="464.000000pt" height="464.000000pt" viewBox="0 0 464.000000 464.000000"
 preserveAspectRatio="xMidYMid meet">
<metadata>
Created by potrace 1.14, written by Peter Selinger 2001-2017
</metadata>
<g transform="translate(0.000000,464.000000) scale(0.100000,-0.100000)"
fill="#000000" stroke="none">
<path d="M2205 4594 c-132 -87 -204 -204 -240 -388 -34 -175 1 -423 94 -661
25 -65 97 -194 121 -215 3 -3 23 -27 45 -55 37 -47 71 -87 105 -124 23 -25
222 -255 245 -282 70 -86 177 -233 207 -284 68 -117 187 -402 217 -522 80
-309 123 -530 137 -703 7 -95 8 -371 0 -428 -3 -20 -8 -66 -11 -102 -15 -154
-76 -418 -134 -580 -38 -105 -38 -125 -5 -147 26 -17 28 -16 101 22 543 279
820 735 821 1355 1 721 -387 1445 -1003 1874 -304 212 -519 443 -627 676 -79
168 -93 404 -33 547 8 20 15 37 15 39 0 10 -18 2 -55 -22z"/>
<path d="M2280 4276 c0 -50 7 -85 27 -134 106 -265 294 -470 704 -767 132 -96
358 -311 443 -423 27 -35 104 -147 172 -248 286 -427 409 -794 408 -1219 0
-271 -57 -535 -162 -757 -22 -46 -39 -84 -37 -86 1 -2 23 30 48 70 178 286
291 554 348 819 30 140 33 440 5 567 -113 522 -451 924 -1236 1469 -431 299
-499 354 -574 468 -48 71 -91 161 -112 230 -25 86 -34 89 -34 11z"/>
<path d="M1523 3828 c-24 -11 -53 -67 -113 -215 -22 -54 -39 -83 -49 -83 -9 0
-77 9 -152 20 -153 24 -177 20 -208 -31 -30 -50 -13 -111 39 -139 9 -5 87 -19
173 -31 l158 -23 70 -124 c39 -68 69 -126 66 -128 -2 -2 -79 7 -170 21 -156
24 -168 25 -197 10 -55 -29 -71 -103 -31 -148 25 -30 42 -35 157 -52 60 -9
120 -18 134 -20 41 -7 230 -35 234 -35 5 0 122 -206 131 -232 4 -10 -31 -79
-100 -196 l-106 -179 -137 -1 -137 0 -135 173 c-74 95 -147 180 -162 189 -59
36 -130 1 -144 -72 -8 -38 -5 -42 106 -182 45 -56 80 -104 77 -106 -2 -2 -68
-6 -146 -7 l-141 -3 -83 105 c-114 147 -139 171 -176 171 -16 0 -41 -5 -55
-11 -31 -14 -60 -72 -52 -104 3 -13 48 -77 99 -142 l93 -118 -93 -125 c-102
-137 -111 -164 -72 -214 30 -38 64 -49 106 -35 26 8 54 37 122 128 49 65 96
124 104 133 12 11 49 15 181 16 91 1 166 0 166 -3 0 -3 -52 -73 -115 -157 -92
-122 -115 -159 -115 -185 0 -39 43 -90 80 -97 55 -9 81 16 245 233 l160 211
55 1 c113 2 181 1 184 -2 2 -2 42 -75 91 -161 l87 -157 -62 -101 c-58 -94 -64
-100 -96 -101 -19 -1 -37 -2 -41 -3 -5 -1 -51 -6 -103 -11 -52 -5 -97 -9 -100
-10 -3 -1 -48 -5 -100 -10 -52 -5 -98 -10 -102 -11 -5 -1 -20 -2 -34 -3 -15 0
-38 -14 -55 -32 -39 -42 -39 -87 0 -131 24 -27 34 -32 72 -30 24 1 54 2 67 2
12 0 81 7 154 15 73 8 134 12 136 10 3 -3 -6 -22 -20 -42 -14 -21 -54 -83 -88
-138 -34 -55 -64 -102 -65 -104 -4 -3 -107 -15 -220 -25 -101 -9 -120 -14
-143 -39 -26 -28 -32 -59 -12 -62 87 -13 395 -20 475 -11 17 2 40 4 53 5 13 1
22 6 20 14 -3 15 144 258 152 251 2 -3 23 -54 45 -113 l40 -108 90 31 c76 26
90 34 87 51 -2 11 -31 94 -64 185 -34 91 -61 170 -61 175 0 6 30 59 67 118
l68 108 215 -4 215 -3 33 -57 c37 -67 40 -65 79 33 36 92 56 168 71 268 14 99
18 249 5 257 -4 3 -15 -10 -24 -28 -8 -17 -49 -86 -89 -152 l-73 -120 -170 2
c-93 1 -185 2 -204 3 -35 0 -35 1 -132 174 -54 96 -98 177 -98 181 0 19 203
343 218 347 9 2 44 3 77 2 33 -1 119 -3 190 -3 l130 -2 80 -144 c44 -79 82
-142 84 -140 2 2 -4 39 -14 82 -22 99 -77 249 -124 335 l-36 68 -135 1 c-74 0
-164 1 -199 2 l-63 2 -69 121 -68 121 83 196 84 196 -24 76 c-13 42 -24 82
-24 90 0 22 -53 19 -83 -5 -16 -13 -47 -71 -87 -167 -35 -82 -65 -152 -68
-156 -5 -10 -142 228 -142 246 0 6 27 75 60 154 33 78 60 156 60 173 0 67 -81
110 -147 78z"/>
<path d="M2725 2525 c89 -290 75 -598 -39 -895 -87 -225 -213 -428 -349 -565
-198 -199 -417 -300 -732 -340 -55 -7 -298 -8 -330 -1 -39 8 -150 19 -174 17
-57 -3 -111 -65 -111 -126 0 -38 80 -145 195 -260 169 -169 304 -255 490 -311
123 -36 337 -43 465 -15 356 80 626 319 747 665 42 121 83 320 98 486 8 82 8
360 1 420 -3 25 -8 68 -11 95 -15 135 -63 339 -126 530 -61 187 -171 451 -124
300z"/>
</g>
</svg>
